:SAMPLES-PER-SECOND 30
:FULLY-SPECIFIED
:DEGREES
2101
root  0.0124799 34.2526 4.32309 167.723 -77.7518 -171.816
RightUpLeg  -5.32426 10.12 -16.3194
RightLeg  57.287 -1.7324 -3.368
RightFoot  -12.4481 0.140862 15.2838
RightToes  7.56698e-010 0 -3.6325e-017
Spine  29.7799 -2.95898 -2.33815
Spine1  -2.06944 -3.60498 -3.44523
HEad  -38.1986 17.4634 -28.4584
LeftShoulder1  -0.269531 -3.29381 14.1578
LeftArm  -61.405 -73.4206 11.7201
LeftForeArm  -21.9824 -49.7811 -14.7526
LeftHand  -0.828922 11.9542 -12.872
RightShoulder  0.28512 -2.21568 15.1689
RightArm  -52.9994 9.90927 25.3917
RightForeArm  80.0366 62.7795 153.842
RightHand  -5.41573 28.2813 -18.7677
LeftUpLeg  -36.5002 15.6101 4.94948
LeftLeg  55.8219 0.956356 2.04867
LeftFoot  -13.3152 0.0988399 1.10539
LeftToes  -2.88401e-009 5.30678e-011 -1.08654e-010
2102
root  -0.838301 35.0593 4.57434 165.041 -78.7179 -168.832
RightUpLeg  -7.1692 7.0444 -15.9882
RightLeg  58.725 -1.09316 -2.39666
RightFoot  -2.91921 -0.756644 9.16034
RightToes  7.56698e-010 0 -3.6325e-017
Spine  29.5355 -3.25311 -1.37707
Spine1  -2.47526 -3.46154 -4.27694
HEad  -37.9502 17.6806 -27.487
LeftShoulder1  -0.376069 -3.9791 15.4174
LeftArm  -61.9614 -72.9323 10.4145
LeftForeArm  -21.147 -50.0594 -14.8498
LeftHand  -0.766769 11.5998 -12.5387
RightShoulder  0.346765 -1.89547 15.0321
RightArm  -54.0376 8.08359 25.7333
RightForeArm  81.4285 61.6792 155.052
RightHand  -5.44349 28.3923 -18.8019
LeftUpLeg  -33.3183 14.7774 4.75513
LeftLeg  52.2075 0.969954 1.82784
LeftFoot  -13.4382 0.10469 1.31457
LeftToes  -2.88401e-009 5.30678e-011 -1.08654e-010
2103
root  -1.5905 35.834 4.7101 162.845 -79.7793 -166.37
RightUpLeg  -8.74295 3.63897 -15.3574
RightLeg  59.5924 2.77294 4.63678
RightFoot  -4.80742 -0.608747 10.4417
RightToes  7.56698e-010 0 -3.6325e-017
Spine  31.0786 -3.21383 -2.32072
Spine1  -5.43929 -4.02344 -2.11905
HEad  -37.1391 18.8504 -27.8852
LeftShoulder1  -0.227487 -3.17632 13.545
LeftArm  -61.4673 -73.3589 9.89344
LeftForeArm  -21.2549 -50.1232 -14.8894
LeftHand  -0.786967 11.8408 -12.399
RightShoulder  0.461335 -1.21579 13.3877
RightArm  -53.634 7.0507 26.4461
RightForeArm  82.9347 60.5671 156.182
RightHand  -5.3147 28.7156 -18.2028
LeftUpLeg  -30.1326 13.8206 4.60291
LeftLeg  48.18 0.87675 1.50214
LeftFoot  -13.0478 0.0990568 1.39606
LeftToes  -2.88401e-009 5.30678e-011 -1.08654e-010
2104
root  -2.27264 36.5107 4.77258 162.82 -80.6709 -165.804
RightUpLeg  -11.339 -0.600726 -14.6561
RightLeg  61.1863 3.96765 7.26337
RightFoot  -7.34681 -0.592885 15.1825
RightToes  7.56698e-010 0 -3.6325e-017
Spine  32.3681 -3.06956 -3.35566
Spine1  -8.5236 -4.33491 -0.75438
HEad  -35.5573 19.8233 -27.4308
LeftShoulder1  -0.114081 -2.76298 11.759
LeftArm  -60.5222 -73.8032 9.11153
LeftForeArm  -21.1026 -50.1259 -14.8823
LeftHand  -0.802863 11.9453 -12.4701
RightShoulder  0.554045 -0.625202 12.2506
RightArm  -53.3149 5.94568 26.4665
RightForeArm  84.8164 59.6744 157.053
RightHand  -5.00605 28.2769 -17.408
LeftUpLeg  -27.4263 13.4881 4.14897
LeftLeg  44.155 0.606766 1.05225
LeftFoot  -12.5964 0.0920078 1.48104
LeftToes  -2.88401e-009 5.30678e-011 -1.08654e-010
2105
root  -2.96309 37.1769 4.85655 162.425 -81.2907 -164.992
RightUpLeg  -14.5611 -5.22512 -13.5234
RightLeg  62.7236 2.80736 5.35752
RightFoot  -7.43408 -0.546345 14.4498
RightToes  7.56698e-010 0 -3.6325e-017
Spine  31.8894 -3.46788 -3.06812
Spine1  -8.62448 -4.46836 -1.67018
HEad  -34.7521 19.8383 -26.9197
LeftShoulder1  -0.152203 -3.0772 12.3041
LeftArm  -61.5395 -73.8742 8.83909
LeftForeArm  -20.3218 -49.6485 -14.5902
LeftHand  -0.766771 11.3503 -13.0689
RightShoulder  0.53606 -0.819854 13.0949
RightArm  -53.6264 7.00353 25.5649
RightForeArm  85.9497 59.8457 156.926
RightHand  -4.48671 28.0826 -15.7725
LeftUpLeg  -24.436 13.115 3.87098
LeftLeg  39.8788 0.457607 0.808058
LeftFoot  -12.0497 0.0803936 1.30475
LeftToes  -2.88401e-009 5.30678e-011 -1.08654e-010
2106
root  -3.65033 37.7441 4.92473 163.142 -81.5376 -165.369
RightUpLeg  -18.2329 -8.68224 -12.1533
RightLeg  63.5145 1.15755 1.97846
RightFoot  -7.83221 -0.45522 13.0512
RightToes  7.56698e-010 0 -3.6325e-017
Spine  31.8505 -3.77643 -2.93463
Spine1  -9.43014 -4.59342 -2.24493
HEad  -33.9375 20.0116 -26.4161
LeftShoulder1  -0.181811 -3.66217 12.5699
LeftArm  -60.9787 -73.6383 7.40916
LeftForeArm  -20.1392 -49.193 -14.3479
LeftHand  -0.72231 11.213 -12.5604
RightShoulder  0.530816 -0.896296 13.5262
RightArm  -53.5616 7.58279 24.9305
RightForeArm  85.768 60.0167 156.767
RightHand  -4.58458 27.5125 -16.3659
LeftUpLeg  -21.5213 12.9971 3.61381
LeftLeg  35.9055 0.419076 0.704428
LeftFoot  -11.6573 0.0728586 1.06271
LeftToes  -2.88401e-009 5.30678e-011 -1.08654e-010
2107
root  -4.28998 38.1434 4.98856 165.679 -81.5478 -167.702
RightUpLeg  -22.1052 -11.1029 -10.9084
RightLeg  62.9646 0.295794 0.0797378
RightFoot  -8.49008 -0.363508 12.2519
RightToes  7.56698e-010 0 -3.6325e-017
Spine  31.813 -4.03876 -3.11199
Spine1  -9.8035 -4.7594 -2.85972
HEad  -33.6332 19.7365 -25.5958
LeftShoulder1  -0.194524 -3.83399 12.6923
LeftArm  -60.7844 -73.6627 6.45751
LeftForeArm  -19.5588 -49.2864 -14.3616
LeftHand  -0.720095 11.4816 -11.9432
RightShoulder  0.522844 -0.978583 13.9326
RightArm  -53.5473 8.44464 24.4809
RightForeArm  84.8635 60.0378 156.724
RightHand  -5.07551 28.186 -17.6888
LeftUpLeg  -18.9888 12.9851 3.19661
LeftLeg  32.7881 0.520757 0.731871
LeftFoot  -11.7953 0.072739 0.447373
LeftToes  -2.88401e-009 5.30678e-011 -1.08654e-010
2108
root  -4.91244 38.3904 5.02634 166.927 -81.7928 -169.022
RightUpLeg  -25.3766 -13.0248 -9.62434
RightLeg  60.3555 0.51813 0.471033
RightFoot  -8.64231 -0.33253 11.5787
RightToes  7.56698e-010 0 -3.6325e-017
Spine  32.0421 -4.43426 -3.22049
Spine1  -9.85254 -5.06222 -3.42536
HEad  -33.2195 18.98 -24.893
LeftShoulder1  -0.238355 -3.99218 13.3044
LeftArm  -60.6397 -73.6916 4.58066
LeftForeArm  -18.5634 -49.3662 -14.3435
LeftHand  -0.739747 11.3976 -12.4756
RightShoulder  0.487023 -1.21606 14.5804
RightArm  -53.8052 9.33583 23.6846
RightForeArm  84.4715 59.8875 156.85
RightHand  -5.40319 28.3325 -18.7145
LeftUpLeg  -16.7681 13.0625 2.96436
LeftLeg  30.7419 0.344257 0.588291
LeftFoot  -12.2288 0.0748997 0.378363
LeftToes  -2.88401e-009 5.30678e-011 -1.08654e-010
2109
root  -5.53574 38.5118 5.04068 167.748 -82.2289 -170.004
RightUpLeg  -28.0109 -14.4445 -8.44429
RightLeg  55.6386 1.52512 1.96125
RightFoot  -9.2082 -0.279611 11.6092
RightToes  7.56698e-010 0 -3.6325e-017
Spine  32.7213 -4.84998 -3.57524
Spine1  -10.2747 -5.5358 -3.27361
HEad  -33.1265 19.1199 -24.0232
LeftShoulder1  -0.225252 -4.0723 13.0558
LeftArm  -60.3082 -74.2493 3.41112
LeftForeArm  -18.6478 -49.3992 -14.3651
LeftHand  -0.686747 11.4422 -11.4252
RightShoulder  0.457819 -1.3651 14.754
RightArm  -53.9976 9.83167 23.501
RightForeArm  84.9431 59.7164 157.015
RightHand  -5.17706 29.5589 -17.327
LeftUpLeg  -15.0196 13.3909 2.82241
LeftLeg  29.7737 -0.245559 0.209848
LeftFoot  -13.1202 0.0779027 0.33196
LeftToes  -2.88401e-009 5.30678e-011 -1.08654e-010
2110
root  -6.15877 38.4962 5.02426 167.955 -82.8673 -170.269
RightUpLeg  -30.1559 -15.4823 -7.33006
RightLeg  49.3743 2.72292 3.07266
RightFoot  -9.78078 -0.227181 11.7504
RightToes  7.56698e-010 0 -3.6325e-017
Spine  32.9166 -5.32473 -3.61699
Spine1  -9.93638 -5.94733 -3.40675
HEad  -33.1615 18.7845 -23.2779
LeftShoulder1  -0.302591 -4.82847 13.8232
LeftArm  -59.5662 -74.1053 1.30022
LeftForeArm  -17.8806 -49.6795 -14.4616
LeftHand  -0.658881 11.071 -11.649
RightShoulder  0.397137 -1.71093 15.6076
RightArm  -54.5429 10.3724 22.9678
RightForeArm  84.753 59.4361 157.256
RightHand  -5.58672 29.2309 -18.8117
LeftUpLeg  -14.0278 13.2623 2.77972
LeftLeg  30.0568 -0.665109 -0.0551551
LeftFoot  -14.479 0.090503 0.123949
LeftToes  -2.88401e-009 5.30678e-011 -1.08654e-010
